<mxfile host="app.diagrams.net" modified="2024-05-28T22:20:07.605Z" agent="Mozilla/5.0 (Windows NT 10.0; Win64; x64; rv:126.0) Gecko/20100101 Firefox/126.0" etag="NUXEBETBdkXsdDHnsZuW" version="24.4.9" type="github">
  <diagram name="PÃ¡gina-1" id="upsQYfGkBgtGAcv_DI93">
    <mxGraphModel dx="880" dy="470" grid="1" gridSize="10" guides="1" tooltips="1" connect="1" arrows="1" fold="1" page="1" pageScale="1" pageWidth="827" pageHeight="1169" math="0" shadow="0">
      <root>
        <mxCell id="0" />
        <mxCell id="1" parent="0" />
        <mxCell id="qZiGoyqQyPNQGoQDouOO-4" style="edgeStyle=orthogonalEdgeStyle;rounded=0;orthogonalLoop=1;jettySize=auto;html=1;exitX=0.5;exitY=1;exitDx=0;exitDy=0;dashed=1;endArrow=none;endFill=0;" edge="1" parent="1" source="qZiGoyqQyPNQGoQDouOO-1">
          <mxGeometry relative="1" as="geometry">
            <mxPoint x="310" y="1178" as="targetPoint" />
          </mxGeometry>
        </mxCell>
        <mxCell id="qZiGoyqQyPNQGoQDouOO-1" value="&lt;u&gt;model:Student&lt;/u&gt;" style="rounded=0;whiteSpace=wrap;html=1;" vertex="1" parent="1">
          <mxGeometry x="250" y="600" width="120" height="60" as="geometry" />
        </mxCell>
        <mxCell id="qZiGoyqQyPNQGoQDouOO-3" style="edgeStyle=orthogonalEdgeStyle;rounded=0;orthogonalLoop=1;jettySize=auto;html=1;exitX=0.5;exitY=0.5;exitDx=0;exitDy=0;exitPerimeter=0;entryX=0;entryY=0.5;entryDx=0;entryDy=0;" edge="1" parent="1" source="qZiGoyqQyPNQGoQDouOO-2" target="qZiGoyqQyPNQGoQDouOO-1">
          <mxGeometry relative="1" as="geometry" />
        </mxCell>
        <mxCell id="qZiGoyqQyPNQGoQDouOO-2" value="Actor" style="shape=umlActor;verticalLabelPosition=bottom;verticalAlign=top;html=1;outlineConnect=0;" vertex="1" parent="1">
          <mxGeometry x="50" y="600" width="30" height="60" as="geometry" />
        </mxCell>
        <mxCell id="qZiGoyqQyPNQGoQDouOO-5" value="" style="shape=link;html=1;rounded=0;width=14;" edge="1" parent="1">
          <mxGeometry width="100" relative="1" as="geometry">
            <mxPoint x="309.5" y="690" as="sourcePoint" />
            <mxPoint x="310" y="1020" as="targetPoint" />
          </mxGeometry>
        </mxCell>
      </root>
    </mxGraphModel>
  </diagram>
</mxfile>
